<svg width="600" height="300" viewBox="0 0 600 300" fill="none" xmlns="http://www.w3.org/2000/svg">
<rect width="600" height="300" fill="#006980"/>
<circle cx="300" cy="153" r="75" fill="#D9D9D9"/>
<path d="M279.359 148.742H273.477V152.023H278.531V153.398H273.477V159H271.93V147.367H279.359V148.742ZM289.805 148.703C290.279 149.224 290.641 149.862 290.891 150.617C291.146 151.372 291.273 152.229 291.273 153.188C291.273 154.146 291.143 155.005 290.883 155.766C290.628 156.521 290.268 157.151 289.805 157.656C289.326 158.182 288.758 158.578 288.102 158.844C287.451 159.109 286.706 159.242 285.867 159.242C285.049 159.242 284.305 159.107 283.633 158.836C282.966 158.565 282.398 158.172 281.93 157.656C281.461 157.141 281.099 156.508 280.844 155.758C280.594 155.008 280.469 154.151 280.469 153.188C280.469 152.24 280.594 151.391 280.844 150.641C281.094 149.885 281.458 149.24 281.938 148.703C282.396 148.193 282.964 147.802 283.641 147.531C284.323 147.26 285.065 147.125 285.867 147.125C286.701 147.125 287.448 147.263 288.109 147.539C288.776 147.81 289.341 148.198 289.805 148.703ZM289.664 153.188C289.664 151.677 289.326 150.513 288.648 149.695C287.971 148.872 287.047 148.461 285.875 148.461C284.693 148.461 283.763 148.872 283.086 149.695C282.414 150.513 282.078 151.677 282.078 153.188C282.078 154.714 282.422 155.883 283.109 156.695C283.797 157.503 284.719 157.906 285.875 157.906C287.031 157.906 287.951 157.503 288.633 156.695C289.32 155.883 289.664 154.714 289.664 153.188ZM301.633 148.742H297.477V159H295.93V148.742H291.773V147.367H301.633V148.742ZM311.477 148.703C311.951 149.224 312.312 149.862 312.562 150.617C312.818 151.372 312.945 152.229 312.945 153.188C312.945 154.146 312.815 155.005 312.555 155.766C312.299 156.521 311.94 157.151 311.477 157.656C310.997 158.182 310.43 158.578 309.773 158.844C309.122 159.109 308.378 159.242 307.539 159.242C306.721 159.242 305.977 159.107 305.305 158.836C304.638 158.565 304.07 158.172 303.602 157.656C303.133 157.141 302.771 156.508 302.516 155.758C302.266 155.008 302.141 154.151 302.141 153.188C302.141 152.24 302.266 151.391 302.516 150.641C302.766 149.885 303.13 149.24 303.609 148.703C304.068 148.193 304.635 147.802 305.312 147.531C305.995 147.26 306.737 147.125 307.539 147.125C308.372 147.125 309.12 147.263 309.781 147.539C310.448 147.81 311.013 148.198 311.477 148.703ZM311.336 153.188C311.336 151.677 310.997 150.513 310.32 149.695C309.643 148.872 308.719 148.461 307.547 148.461C306.365 148.461 305.435 148.872 304.758 149.695C304.086 150.513 303.75 151.677 303.75 153.188C303.75 154.714 304.094 155.883 304.781 156.695C305.469 157.503 306.391 157.906 307.547 157.906C308.703 157.906 309.622 157.503 310.305 156.695C310.992 155.883 311.336 154.714 311.336 153.188ZM328.594 159H320.719V157.367C321.266 156.898 321.812 156.43 322.359 155.961C322.911 155.492 323.424 155.026 323.898 154.562C324.898 153.594 325.583 152.826 325.953 152.258C326.323 151.685 326.508 151.068 326.508 150.406C326.508 149.802 326.307 149.331 325.906 148.992C325.51 148.648 324.956 148.477 324.242 148.477C323.768 148.477 323.255 148.56 322.703 148.727C322.151 148.893 321.612 149.148 321.086 149.492H321.008V147.852C321.378 147.669 321.87 147.503 322.484 147.352C323.104 147.201 323.703 147.125 324.281 147.125C325.474 147.125 326.409 147.414 327.086 147.992C327.763 148.565 328.102 149.344 328.102 150.328C328.102 150.771 328.044 151.185 327.93 151.57C327.82 151.951 327.656 152.312 327.438 152.656C327.234 152.979 326.995 153.297 326.719 153.609C326.448 153.922 326.117 154.268 325.727 154.648C325.169 155.195 324.594 155.727 324 156.242C323.406 156.753 322.852 157.227 322.336 157.664H328.594V159Z" fill="black"/>
</svg>
