<svg width="600" height="300" viewBox="0 0 600 300" fill="none" xmlns="http://www.w3.org/2000/svg">
<rect width="600" height="300" fill="#FF4500" fill-opacity="0.55"/>
<circle cx="300" cy="153" r="75" fill="#D9D9D9"/>
<path d="M279.359 148.742H273.477V152.023H278.531V153.398H273.477V159H271.93V147.367H279.359V148.742ZM289.805 148.703C290.279 149.224 290.641 149.862 290.891 150.617C291.146 151.372 291.273 152.229 291.273 153.188C291.273 154.146 291.143 155.005 290.883 155.766C290.628 156.521 290.268 157.151 289.805 157.656C289.326 158.182 288.758 158.578 288.102 158.844C287.451 159.109 286.706 159.242 285.867 159.242C285.049 159.242 284.305 159.107 283.633 158.836C282.966 158.565 282.398 158.172 281.93 157.656C281.461 157.141 281.099 156.508 280.844 155.758C280.594 155.008 280.469 154.151 280.469 153.188C280.469 152.24 280.594 151.391 280.844 150.641C281.094 149.885 281.458 149.24 281.938 148.703C282.396 148.193 282.964 147.802 283.641 147.531C284.323 147.26 285.065 147.125 285.867 147.125C286.701 147.125 287.448 147.263 288.109 147.539C288.776 147.81 289.341 148.198 289.805 148.703ZM289.664 153.188C289.664 151.677 289.326 150.513 288.648 149.695C287.971 148.872 287.047 148.461 285.875 148.461C284.693 148.461 283.763 148.872 283.086 149.695C282.414 150.513 282.078 151.677 282.078 153.188C282.078 154.714 282.422 155.883 283.109 156.695C283.797 157.503 284.719 157.906 285.875 157.906C287.031 157.906 287.951 157.503 288.633 156.695C289.32 155.883 289.664 154.714 289.664 153.188ZM301.633 148.742H297.477V159H295.93V148.742H291.773V147.367H301.633V148.742ZM311.477 148.703C311.951 149.224 312.312 149.862 312.562 150.617C312.818 151.372 312.945 152.229 312.945 153.188C312.945 154.146 312.815 155.005 312.555 155.766C312.299 156.521 311.94 157.151 311.477 157.656C310.997 158.182 310.43 158.578 309.773 158.844C309.122 159.109 308.378 159.242 307.539 159.242C306.721 159.242 305.977 159.107 305.305 158.836C304.638 158.565 304.07 158.172 303.602 157.656C303.133 157.141 302.771 156.508 302.516 155.758C302.266 155.008 302.141 154.151 302.141 153.188C302.141 152.24 302.266 151.391 302.516 150.641C302.766 149.885 303.13 149.24 303.609 148.703C304.068 148.193 304.635 147.802 305.312 147.531C305.995 147.26 306.737 147.125 307.539 147.125C308.372 147.125 309.12 147.263 309.781 147.539C310.448 147.81 311.013 148.198 311.477 148.703ZM311.336 153.188C311.336 151.677 310.997 150.513 310.32 149.695C309.643 148.872 308.719 148.461 307.547 148.461C306.365 148.461 305.435 148.872 304.758 149.695C304.086 150.513 303.75 151.677 303.75 153.188C303.75 154.714 304.094 155.883 304.781 156.695C305.469 157.503 306.391 157.906 307.547 157.906C308.703 157.906 309.622 157.503 310.305 156.695C310.992 155.883 311.336 154.714 311.336 153.188ZM327.57 153.398C327.82 153.622 328.026 153.904 328.188 154.242C328.349 154.581 328.43 155.018 328.43 155.555C328.43 156.086 328.333 156.573 328.141 157.016C327.948 157.458 327.677 157.844 327.328 158.172C326.938 158.536 326.477 158.807 325.945 158.984C325.419 159.156 324.841 159.242 324.211 159.242C323.565 159.242 322.93 159.164 322.305 159.008C321.68 158.857 321.167 158.69 320.766 158.508V156.875H320.883C321.326 157.167 321.846 157.409 322.445 157.602C323.044 157.794 323.622 157.891 324.18 157.891C324.508 157.891 324.857 157.836 325.227 157.727C325.596 157.617 325.896 157.456 326.125 157.242C326.365 157.013 326.542 156.76 326.656 156.484C326.776 156.208 326.836 155.859 326.836 155.438C326.836 155.021 326.768 154.677 326.633 154.406C326.503 154.13 326.32 153.914 326.086 153.758C325.852 153.596 325.568 153.487 325.234 153.43C324.901 153.367 324.542 153.336 324.156 153.336H323.453V152.039H324C324.792 152.039 325.422 151.875 325.891 151.547C326.365 151.214 326.602 150.729 326.602 150.094C326.602 149.812 326.542 149.568 326.422 149.359C326.302 149.146 326.135 148.971 325.922 148.836C325.698 148.701 325.458 148.607 325.203 148.555C324.948 148.503 324.659 148.477 324.336 148.477C323.841 148.477 323.315 148.565 322.758 148.742C322.201 148.919 321.674 149.169 321.18 149.492H321.102V147.859C321.471 147.677 321.964 147.51 322.578 147.359C323.198 147.203 323.797 147.125 324.375 147.125C324.943 147.125 325.443 147.177 325.875 147.281C326.307 147.385 326.698 147.552 327.047 147.781C327.422 148.031 327.706 148.333 327.898 148.688C328.091 149.042 328.188 149.456 328.188 149.93C328.188 150.576 327.958 151.141 327.5 151.625C327.047 152.104 326.51 152.406 325.891 152.531V152.641C326.141 152.682 326.427 152.771 326.75 152.906C327.073 153.036 327.346 153.201 327.57 153.398Z" fill="black"/>
</svg>
