<svg width="100" height="100" viewBox="0 0 100 100" fill="none" xmlns="http://www.w3.org/2000/svg">
<path d="M100 50C100 77.6142 77.6142 100 50 100C22.3858 100 0 77.6142 0 50C0 22.3858 22.3858 0 50 0C77.6142 0 100 22.3858 100 50Z" fill="#8A2BE2"/>
<path d="M100 50C100 77.6142 77.6142 100 50 100C22.3858 100 0 77.6142 0 50C0 22.3858 22.3858 0 50 0C77.6142 0 100 22.3858 100 50Z" fill="#8A2BE2"/>
<circle cx="50.2857" cy="49.7143" r="42.8571" fill="#4B0082"/>
<circle cx="50" cy="50" r="35.7143" fill="#0000FF"/>
<circle cx="50.2857" cy="49.7143" r="28.5714" fill="#008000"/>
<circle cx="50" cy="50" r="21.4286" fill="#FFFF00"/>
<circle cx="50.2857" cy="49.7143" r="14.2857" fill="#FF4500"/>
<circle cx="50" cy="50" r="7.14286" fill="#FF0000"/>
</svg>
