<svg width="400" height="400" viewBox="0 0 400 400" fill="none" xmlns="http://www.w3.org/2000/svg">
<path d="M400 200C400 310.457 310.457 400 200 400C89.5431 400 0 310.457 0 200C0 89.5431 89.5431 0 200 0C310.457 0 400 89.5431 400 200Z" fill="#8A2BE2"/>
<path d="M400 200C400 310.457 310.457 400 200 400C89.5431 400 0 310.457 0 200C0 89.5431 89.5431 0 200 0C310.457 0 400 89.5431 400 200Z" fill="#8A2BE2"/>
<circle cx="200" cy="200" r="175" fill="#4B0082"/>
<circle cx="200" cy="200" r="150" fill="#0000FF"/>
<circle cx="200" cy="200" r="125" fill="#008000"/>
<circle cx="200" cy="200" r="100" fill="#FFFF00"/>
<circle cx="200" cy="200" r="75" fill="#FF4500"/>
<circle cx="200" cy="200" r="50" fill="#FF0000"/>
</svg>
