<svg width="175" height="175" viewBox="0 0 175 175" fill="none" xmlns="http://www.w3.org/2000/svg">
<path d="M175 87.5C175 135.825 135.825 175 87.5 175C39.1751 175 0 135.825 0 87.5C0 39.1751 39.1751 0 87.5 0C135.825 0 175 39.1751 175 87.5Z" fill="#8A2BE2"/>
<path d="M175 87.5C175 135.825 135.825 175 87.5 175C39.1751 175 0 135.825 0 87.5C0 39.1751 39.1751 0 87.5 0C135.825 0 175 39.1751 175 87.5Z" fill="#8A2BE2"/>
<circle cx="88" cy="87" r="75" fill="#4B0082"/>
<circle cx="87.5" cy="87.5" r="62.5" fill="#0000FF"/>
<circle cx="88" cy="87" r="50" fill="#008000"/>
<circle cx="87.5" cy="87.5" r="37.5" fill="#FFFF00"/>
<circle cx="88" cy="87" r="25" fill="#FF4500"/>
<circle cx="87.5" cy="87.5" r="12.5" fill="#FF0000"/>
</svg>
